<svg width="22" height="20" viewBox="0 0 22 20" fill="none" xmlns="http://www.w3.org/2000/svg">
<path d="M14.8891 4.27755C17.037 6.42543 17.037 9.90784 14.8891 12.0557M7.11091 12.0557C4.96303 9.90784 4.96303 6.42543 7.11091 4.27755M4.51798 14.6485C0.938178 11.0687 0.938178 5.26468 4.51798 1.68488M17.482 1.68488C21.0618 5.26468 21.0618 11.0687 17.482 14.6485M11 10C12.0125 10 12.8333 9.17919 12.8333 8.16667C12.8333 7.15414 12.0125 6.33333 11 6.33333C9.98748 6.33333 9.16667 7.15414 9.16667 8.16667C9.16667 9.17919 9.98748 10 11 10ZM11 10V18.25" stroke="black" stroke-width="2" stroke-linecap="round" stroke-linejoin="round"/>
</svg>
