<svg width="22" height="21" viewBox="0 0 22 21" fill="none" xmlns="http://www.w3.org/2000/svg">
<path d="M12 20H5M18 17H9M6 17H4M17 20H15M6 14C3.23858 14 1 11.7614 1 9C1 6.23858 3.23858 4 6 4C6.03315 4 6.06622 4.00032 6.09922 4.00097C7.0094 2.2196 8.86227 1 11 1C13.5192 1 15.6429 2.69375 16.2943 5.00462C16.3625 5.00155 16.4311 5 16.5 5C18.9853 5 21 7.01472 21 9.5C21 11.9853 18.9853 14 16.5 14C12.7434 14 10.2352 14 6 14Z" stroke="black" stroke-width="2" stroke-linecap="round" stroke-linejoin="round"/>
</svg>
