<svg width="22" height="22" viewBox="0 0 22 22" fill="none" xmlns="http://www.w3.org/2000/svg">
<path d="M15.5 12C18.0768 12 20.2397 10.228 20.8366 7.83604C20.4087 7.94287 19.961 7.99958 19.5 7.99958C16.4624 7.99958 14 5.53715 14 2.49958C14 2.03881 14.0567 1.59128 14.1634 1.16357C11.7717 1.76068 10 3.92345 10 6.50003C10 7.41275 10.2223 8.27355 10.6158 9.03121M4 6V2M2 4H6M5 21C2.79086 21 1 19.2091 1 17C1 15.0221 2.43551 13.3796 4.32148 13.0573C5.12876 10.697 7.3662 9 10 9C12.2882 9 14.2772 10.2809 15.2892 12.1648C15.6744 12.0574 16.0805 12 16.5 12C18.9853 12 21 14.0147 21 16.5C21 18.9853 18.9853 21 16.5 21C12.6667 21 8.83333 21 5 21Z" stroke="black" stroke-width="2" stroke-linecap="round" stroke-linejoin="round"/>
</svg>
