<?xml version="1.0" encoding="utf-8"?>
<!-- Generator: Adobe Illustrator 26.1.0, SVG Export Plug-In . SVG Version: 6.00 Build 0)  -->
<svg version="1.1" id="Layer_1" xmlns="http://www.w3.org/2000/svg" xmlns:xlink="http://www.w3.org/1999/xlink" x="0px" y="0px"
	 viewBox="0 0 24 24" style="enable-background:new 0 0 24 24;" xml:space="preserve">
<style type="text/css">
	.st0{stroke:#000000;stroke-width:0.4;stroke-miterlimit:10;}
	.st1{stroke:#000000;stroke-width:0.65;stroke-miterlimit:10;}
</style>
<path class="st0" d="M8,13.3H0.2v-0.8H8V13.3z M18.5,12.4h-0.1c0.9-0.7,1.4-1.8,1.4-2.9c0-2.1-1.7-3.8-3.8-3.8s-3.8,1.7-3.8,3.8v0.4
	h0.8V9.5c0-1.6,1.3-2.9,2.9-2.9S19,7.9,19,9.5s-1.3,2.9-2.9,2.9H9.7v0.8h8.8c1.2,0,2.1,0.9,2.1,2.1s-0.9,2.1-2.1,2.1
	c-1.2,0-2.1-0.9-2.1-2.1V15h-0.8v0.4c0,1.6,1.3,2.9,2.9,2.9c1.6,0,2.9-1.3,2.9-2.9S20.2,12.4,18.5,12.4z M10.5,16.7H1.3v0.8h9.3
	c1.4,0,2.5,1.1,2.5,2.5s-1.1,2.5-2.5,2.5S8,21.4,8,20H7.2c0,1.9,1.5,3.4,3.4,3.4s3.4-1.5,3.4-3.4S12.4,16.7,10.5,16.7z M1.3,17.5
	H0.2v-0.8h1.1V17.5z"/>
<path class="st1" d="M6.9,5.7L4.8,3.5L2.7,5.7C2.2,6.3,1.9,7,1.9,7.8s0.3,1.5,0.9,2.1c0.6,0.6,1.3,0.9,2.1,0.9
	c0.8,0,1.5-0.3,2.1-0.9c0.6-0.6,0.9-1.3,0.9-2.1S7.5,6.3,6.9,5.7z M6.6,9.6c-0.5,0.5-1.1,0.7-1.7,0.7S3.6,10,3.1,9.6
	c-1-1-1-2.5,0-3.5l1.7-1.8l1.7,1.8c0.5,0.5,0.7,1.1,0.7,1.7S7.1,9.1,6.6,9.6z"/>
<path class="st1" d="M11.7,3.8l-1-1.1l-1,1.1c-0.3,0.3-0.4,0.6-0.4,1c0,0.4,0.1,0.7,0.4,1c0.3,0.3,0.6,0.4,1,0.4
	c0.4,0,0.7-0.1,1-0.4c0.3-0.3,0.4-0.6,0.4-1C12.1,4.4,11.9,4.1,11.7,3.8z M11.5,5.6C11.3,5.9,11,6,10.7,6S10,5.9,9.8,5.6
	C9.3,5.2,9.3,4.4,9.8,4l0.8-0.9L11.5,4c0.2,0.2,0.4,0.5,0.4,0.8S11.7,5.4,11.5,5.6z"/>
<path class="st0" d="M19,3.4l-0.2-0.2L20,2c0.2-0.2,0.5-0.2,0.7,0l1.2,1.2l-0.2,0.2l-1.1-1.1v2.9h-0.3V2.3L19,3.4L19,3.4z"/>
</svg>
