<svg width="20" height="16" viewBox="0 0 20 16" fill="none" xmlns="http://www.w3.org/2000/svg">
<path d="M19 14C19 14 17.8096 13.5305 17 13.3021C11.8797 11.8574 8.12029 16.1426 3 14.6979C2.19041 14.4695 1 14 1 14M19 8C19 8 17.8096 7.53048 17 7.30206C11.8797 5.85739 8.12029 10.1426 3 8.69794C2.19041 8.46952 1 8 1 8M19 2C19 2 17.8096 1.53048 17 1.30206C11.8797 -0.142607 8.12029 4.14261 3 2.69794C2.19041 2.46952 1 2 1 2" stroke="black" stroke-width="2" stroke-linecap="round" stroke-linejoin="round"/>
</svg>
