<svg width="22" height="21" viewBox="0 0 22 21" fill="none" xmlns="http://www.w3.org/2000/svg">
<path d="M4.32569 17.7392C4.79176 17.2237 6.97453 14.8511 7.6142 14.8511H14.3776C15.3045 14.8511 17.1967 16.8178 17.6657 17.511M20.6975 10.5521C20.6975 15.8446 16.3538 20.1349 10.9957 20.1349C5.63753 20.1349 1.29388 15.8446 1.29388 10.5521C1.29388 5.25967 5.63753 0.969299 10.9957 0.969299C16.3538 0.969299 20.6975 5.25967 20.6975 10.5521ZM14.471 7.28593C14.471 5.4577 12.9085 3.96393 10.996 3.96393C9.08353 3.96393 7.52096 5.4577 7.52096 7.28593C7.52096 9.11417 9.08353 10.6079 10.996 10.6079C12.9084 10.6079 14.471 9.11417 14.471 7.28593Z" stroke="white" stroke-width="1.6"/>
</svg>
