<svg width="20" height="20" viewBox="0 0 20 20" fill="none" xmlns="http://www.w3.org/2000/svg">
<path d="M3.95001 16.6C4.37275 16.1265 6.35264 13.9478 6.93285 13.9478H13.0675C13.9083 13.9478 15.6247 15.7538 16.05 16.3904M18.8 10C18.8 14.8601 14.8601 18.8 10 18.8C5.13991 18.8 1.20001 14.8601 1.20001 10C1.20001 5.13989 5.13991 1.2 10 1.2C14.8601 1.2 18.8 5.13989 18.8 10ZM13.1523 7.00063C13.1523 5.32174 11.735 3.95 10.0003 3.95C8.2656 3.95 6.84827 5.32174 6.84827 7.00063C6.84827 8.67951 8.2656 10.0513 10.0003 10.0513C11.735 10.0513 13.1523 8.67951 13.1523 7.00063Z" stroke="black" stroke-width="2.25"/>
</svg>
