<svg width="28" height="28" viewBox="0 0 28 28" fill="none" xmlns="http://www.w3.org/2000/svg">
<path fill-rule="evenodd" clip-rule="evenodd" d="M16.2351 3.75503C15.6651 1.41499 12.3349 1.41499 11.7649 3.75503C11.6798 4.10666 11.5129 4.43323 11.2777 4.70816C11.0426 4.98309 10.7458 5.19862 10.4117 5.33721C10.0775 5.47579 9.71528 5.53352 9.35456 5.50569C8.99385 5.47786 8.6448 5.36526 8.33582 5.17705C6.27776 3.92303 3.92268 6.27807 5.17672 8.3361C5.98675 9.66512 5.26823 11.3991 3.75618 11.7667C1.41461 12.3352 1.41461 15.6667 3.75618 16.2337C4.10791 16.3189 4.43454 16.486 4.70948 16.7213C4.98441 16.9567 5.19988 17.2536 5.33834 17.588C5.47679 17.9223 5.53432 18.2847 5.50624 18.6455C5.47815 19.0063 5.36525 19.3554 5.17672 19.6643C3.92268 21.7223 6.27776 24.0773 8.33582 22.8233C8.64474 22.6348 8.99382 22.5219 9.35463 22.4938C9.71544 22.4657 10.0778 22.5233 10.4122 22.6617C10.7465 22.8002 11.0435 23.0156 11.2788 23.2906C11.5141 23.5655 11.6812 23.8921 11.7664 24.2438C12.3349 26.5854 15.6666 26.5854 16.2336 24.2438C16.3191 23.8923 16.4863 23.5659 16.7217 23.2912C16.9571 23.0164 17.254 22.8011 17.5882 22.6627C17.9225 22.5243 18.2847 22.4667 18.6454 22.4946C19.0061 22.5225 19.3552 22.6351 19.6642 22.8233C21.7222 24.0773 24.0773 21.7223 22.8233 19.6643C22.6351 19.3553 22.5225 19.0063 22.4945 18.6455C22.4666 18.2848 22.5242 17.9226 22.6626 17.5884C22.801 17.2541 23.0164 16.9572 23.2911 16.7218C23.5659 16.4865 23.8923 16.3192 24.2438 16.2337C26.5854 15.6652 26.5854 12.3337 24.2438 11.7667C23.8921 11.6814 23.5655 11.5144 23.2905 11.279C23.0156 11.0437 22.8001 10.7468 22.6617 10.4124C22.5232 10.078 22.4657 9.7157 22.4938 9.35489C22.5218 8.99409 22.6347 8.64501 22.8233 8.3361C24.0773 6.27807 21.7222 3.92303 19.6642 5.17705C19.3553 5.36557 19.0062 5.47847 18.6454 5.50656C18.2846 5.53464 17.9222 5.47711 17.5878 5.33866C17.2535 5.20021 16.9565 4.98474 16.7212 4.70981C16.4859 4.43488 16.3188 4.10825 16.2336 3.75653L16.2351 3.75503Z" stroke="black" stroke-width="2.25"/>
<path d="M16.6667 14C16.6667 15.4728 15.4728 16.6667 14 16.6667C12.5272 16.6667 11.3333 15.4728 11.3333 14C11.3333 12.5272 12.5272 11.3333 14 11.3333C15.4728 11.3333 16.6667 12.5272 16.6667 14Z" stroke="black" stroke-width="2.25"/>
</svg>
