<svg width="28" height="25" viewBox="0 0 28 25" fill="none" xmlns="http://www.w3.org/2000/svg">
<path d="M13.9297 12.728H14M11.0931 7.47792C9.24846 8.50145 8 10.4689 8 12.728C8 14.987 9.24846 16.9545 11.0931 17.978M16.9069 7.47792C18.7515 8.50145 20 10.4689 20 12.728C20 14.987 18.7515 16.9545 16.9069 17.978M8 23.1226C4.41319 21.0477 2 17.1696 2 12.728C2 8.28626 4.41319 4.4082 8 2.33334M20 23.1226C23.5868 21.0477 26 17.1696 26 12.728C26 8.28626 23.5868 4.4082 20 2.33334" stroke="black" stroke-width="3.25" stroke-linecap="round"/>
</svg>
