<svg width="28" height="24" viewBox="0 0 28 24" fill="none" xmlns="http://www.w3.org/2000/svg">
<path d="M13.9297 11.728H14M11.0931 6.47792C9.24846 7.50145 8 9.46891 8 11.728C8 13.987 9.24846 15.9545 11.0931 16.978M16.9069 6.47792C18.7515 7.50145 20 9.46891 20 11.728C20 13.987 18.7515 15.9545 16.9069 16.978M8 22.1226C4.41319 20.0477 2 16.1696 2 11.728C2 7.28626 4.41319 3.4082 8 1.33334M20 22.1226C23.5868 20.0477 26 16.1696 26 11.728C26 7.28626 23.5868 3.4082 20 1.33334" stroke="black" stroke-width="2.25" stroke-linecap="round"/>
</svg>
