<?xml version="1.0" standalone="no"?>
<!DOCTYPE svg PUBLIC "-//W3C//DTD SVG 20010904//EN"
 "http://www.w3.org/TR/2001/REC-SVG-20010904/DTD/svg10.dtd">
<svg version="1.0" xmlns="http://www.w3.org/2000/svg"
 width="2048.000000pt" height="2048.000000pt" viewBox="0 0 2048.000000 2048.000000"
 preserveAspectRatio="xMidYMid meet">

<g transform="translate(0.000000,2048.000000) scale(0.100000,-0.100000)"
fill="#000000" stroke="none">
<path d="M0 10240 l0 -10240 10240 0 10240 0 0 10240 0 10240 -10240 0 -10240
0 0 -10240z m10860 6250 c85 -11 178 -24 205 -30 28 -6 111 -19 185 -30 134
-19 219 -38 295 -65 22 -7 58 -16 80 -20 43 -6 265 -73 355 -107 30 -11 85
-30 121 -43 36 -12 81 -30 100 -38 326 -148 399 -185 574 -290 105 -64 237
-147 245 -157 3 -3 59 -45 125 -95 239 -179 461 -385 608 -565 33 -41 67 -82
74 -90 98 -109 308 -415 391 -570 20 -36 38 -67 41 -70 12 -11 181 -363 181
-378 0 -3 9 -24 19 -46 33 -69 92 -227 116 -311 13 -44 32 -107 43 -140 26
-76 96 -359 111 -445 6 -36 20 -114 30 -175 47 -269 58 -377 71 -705 11 -266
5 -315 -48 -397 -39 -61 -114 -107 -207 -128 -38 -9 -115 -27 -170 -40 -94
-22 -180 -36 -320 -50 -33 -3 -87 -10 -120 -15 -224 -33 -260 -35 -680 -34
-346 1 -451 5 -535 18 -58 9 -181 25 -275 36 -93 11 -207 29 -252 40 -46 11
-129 29 -185 40 -57 11 -115 25 -130 31 -14 6 -82 26 -150 44 -116 32 -289 87
-333 106 -11 5 -58 24 -105 42 -276 111 -591 279 -843 452 -39 27 -81 57 -92
67 -11 10 -77 62 -146 117 -122 97 -269 230 -333 301 -17 19 -52 55 -77 80
-126 124 -387 478 -501 680 -188 333 -315 661 -394 1025 -51 236 -62 326 -71
573 -3 94 -9 172 -14 172 -51 0 -518 -207 -644 -286 -27 -17 -81 -51 -120 -75
-69 -43 -142 -96 -261 -192 -84 -67 -302 -291 -353 -363 -122 -172 -204 -312
-240 -410 -12 -30 -28 -68 -36 -83 -18 -35 -54 -165 -70 -256 -19 -103 -37
-373 -31 -452 3 -37 8 -99 11 -136 29 -409 233 -793 570 -1076 163 -137 320
-239 550 -357 85 -44 147 -72 290 -130 33 -13 68 -29 79 -35 51 -29 549 -192
831 -272 66 -19 154 -44 195 -56 41 -12 113 -31 160 -43 47 -11 123 -32 170
-45 47 -14 119 -33 160 -42 41 -10 107 -27 145 -39 39 -11 104 -29 145 -38 41
-9 105 -27 142 -40 37 -12 104 -30 150 -39 46 -10 106 -25 133 -35 28 -10 66
-21 85 -25 34 -6 142 -38 360 -104 58 -18 139 -41 180 -51 41 -10 107 -29 145
-42 39 -14 124 -42 190 -63 66 -20 152 -48 190 -62 39 -13 115 -40 170 -58
153 -52 451 -168 510 -199 17 -9 36 -16 43 -16 7 0 20 -4 30 -10 9 -5 76 -37
147 -71 219 -102 391 -192 405 -211 3 -4 24 -15 45 -24 22 -9 58 -29 80 -44
22 -15 74 -49 115 -76 242 -155 524 -398 691 -594 104 -123 230 -301 282 -401
13 -24 36 -66 50 -94 79 -149 156 -358 193 -525 78 -354 78 -357 77 -710 0
-304 -1 -305 -67 -626 -26 -126 -103 -380 -135 -442 -10 -20 -24 -53 -30 -73
-17 -54 -152 -315 -212 -411 -47 -75 -105 -157 -201 -281 -101 -131 -377 -417
-466 -485 -20 -15 -46 -34 -57 -44 -100 -82 -157 -126 -254 -192 -250 -172
-625 -377 -806 -440 -22 -7 -65 -25 -95 -40 -65 -30 -481 -168 -560 -185 -30
-7 -91 -23 -135 -36 -44 -13 -127 -33 -185 -44 -58 -11 -116 -22 -130 -24 -14
-3 -50 -12 -80 -20 -78 -21 -157 -33 -395 -63 -194 -24 -243 -26 -635 -28
-393 -1 -437 1 -585 22 -88 12 -212 30 -275 38 -63 9 -146 23 -185 31 -38 8
-113 24 -165 34 -338 71 -846 250 -1150 406 -111 57 -268 143 -340 188 -51 31
-304 199 -310 205 -3 3 -21 17 -40 30 -56 39 -249 198 -320 264 -222 207 -425
429 -520 570 -8 12 -40 56 -71 97 -105 140 -242 371 -354 601 -29 60 -56 119
-59 133 -4 14 -19 53 -35 87 -119 257 -263 845 -286 1167 -4 47 -10 124 -16
171 -15 143 -11 576 6 643 24 94 79 164 160 206 51 26 250 79 329 87 34 3 108
14 166 25 58 10 128 21 155 24 28 3 86 11 130 17 114 16 1028 16 1160 0 688
-86 1208 -231 1715 -480 85 -42 174 -88 197 -104 23 -15 45 -28 48 -28 9 0
189 -112 237 -148 21 -15 64 -45 95 -67 293 -204 665 -573 884 -876 124 -172
209 -305 287 -449 19 -36 38 -69 42 -75 3 -5 13 -26 21 -45 7 -19 25 -55 38
-80 88 -157 251 -661 281 -865 54 -374 60 -431 60 -538 0 -81 2 -88 18 -82 20
8 63 23 177 59 174 55 335 118 412 162 23 13 47 24 53 24 16 0 273 140 361
196 90 58 227 155 254 181 11 10 43 36 70 58 68 54 207 193 286 285 35 41 67
77 70 80 9 8 91 127 126 183 48 78 115 206 133 257 10 25 22 55 28 66 11 21
76 222 85 264 37 167 53 545 30 680 -7 36 -17 99 -23 140 -26 165 -142 421
-265 580 -62 80 -248 267 -334 335 -90 71 -248 178 -305 207 -22 11 -48 26
-56 33 -18 15 -274 145 -385 196 -124 57 -145 66 -230 99 -44 17 -100 40 -125
50 -25 11 -76 31 -115 44 -172 60 -261 92 -270 98 -5 3 -59 20 -120 38 -60 18
-114 36 -120 40 -5 5 -48 18 -95 30 -47 11 -116 31 -155 45 -100 33 -263 83
-385 117 -270 75 -586 161 -708 193 -50 13 -122 33 -160 44 -37 12 -112 32
-167 46 -55 14 -156 40 -225 59 -69 18 -178 47 -244 64 -65 18 -152 43 -193
57 -42 14 -82 25 -90 25 -41 0 -642 205 -858 293 -192 79 -518 235 -620 297
-27 17 -57 34 -65 37 -8 4 -19 11 -25 15 -5 4 -59 40 -119 79 -183 119 -334
239 -477 380 -122 121 -254 273 -305 354 -10 17 -32 48 -49 70 -16 22 -39 58
-50 80 -11 22 -23 42 -26 45 -10 8 -125 241 -134 270 -4 14 -18 48 -30 75 -30
63 -92 271 -116 390 -53 257 -69 410 -69 662 1 297 43 575 125 833 113 355
245 610 457 887 80 104 106 135 216 256 254 280 657 575 1042 763 63 31 126
62 140 69 49 26 244 107 324 135 44 15 106 37 136 48 70 25 294 90 340 98 19
3 109 26 200 49 220 58 245 62 390 75 69 6 168 15 220 22 52 6 172 13 265 15
94 2 175 6 180 8 27 12 621 -8 765 -25z"/>
<path d="M9948 15483 l-57 -4 -7 -45 c-3 -25 -4 -129 -1 -232 4 -152 11 -219
36 -357 18 -93 38 -186 45 -205 8 -19 22 -66 31 -105 10 -38 28 -90 40 -115
12 -25 28 -63 35 -85 17 -54 91 -206 140 -285 21 -36 49 -82 60 -104 22 -38
105 -161 124 -183 6 -6 38 -46 71 -89 156 -204 497 -505 704 -624 14 -8 28
-18 31 -21 8 -8 146 -87 230 -131 205 -107 461 -203 745 -279 103 -27 147 -36
275 -55 58 -8 132 -22 165 -29 130 -29 320 -40 727 -40 223 0 410 3 414 7 8 9
-13 235 -26 288 -5 19 -19 78 -31 130 -32 145 -89 347 -121 424 -15 38 -28 75
-28 82 0 7 -13 39 -30 71 -16 31 -30 61 -30 65 0 7 -40 90 -137 283 -14 27
-38 69 -54 92 -16 23 -29 44 -29 46 0 6 -110 170 -119 177 -3 3 -26 32 -51 65
-260 345 -674 684 -1065 870 -252 119 -575 240 -725 269 -14 3 -63 14 -110 25
-93 23 -207 43 -340 59 -47 6 -123 16 -170 22 -86 12 -637 21 -742 13z"/>
<path d="M6788 7988 c-77 -9 -88 -13 -88 -30 0 -31 59 -381 69 -408 5 -14 17
-56 26 -95 19 -78 88 -288 115 -350 9 -22 23 -58 30 -80 7 -22 23 -60 36 -85
13 -25 37 -74 55 -110 61 -125 164 -300 256 -434 89 -129 185 -240 348 -401
163 -163 246 -236 321 -286 27 -18 51 -36 54 -39 9 -11 159 -110 167 -110 3 0
16 -9 27 -19 44 -40 385 -210 503 -251 28 -10 62 -25 75 -33 12 -8 50 -23 83
-32 33 -10 84 -26 113 -37 91 -31 281 -80 397 -100 61 -10 133 -23 160 -29
197 -38 498 -59 831 -59 l261 0 7 37 c9 55 8 129 -5 298 -28 392 -139 746
-347 1103 -95 164 -213 329 -312 436 -136 147 -279 286 -381 372 -22 18 -108
79 -253 181 -81 57 -363 206 -491 260 -33 14 -73 31 -90 38 -67 28 -263 94
-315 106 -30 6 -73 18 -95 26 -67 24 -403 88 -510 98 -33 3 -114 13 -180 22
-143 19 -730 27 -867 11z"/>
</g>
</svg>
