<svg width="24" height="22" viewBox="0 0 24 22" fill="none" xmlns="http://www.w3.org/2000/svg">
<path d="M18.0622 7.5L5.9378 14.5M18.0622 7.5L19.1602 3.40192M18.0622 7.5L22.1602 8.59808M5.9378 14.5L1.83972 13.4019M5.9378 14.5L4.83972 18.5981M18.0621 14.4999L5.93771 7.49986M18.0621 14.4999L22.1602 13.4018M18.0621 14.4999L19.1602 18.598M5.93771 7.49986L4.83986 3.40203M5.93771 7.49986L1.83986 8.59819M12 4L12 18M12 4L8.99998 1M12 4L15 1M12 18L8.99998 21M12 18L15 21" stroke="black" stroke-width="2" stroke-linecap="round" stroke-linejoin="round"/>
</svg>
