<?xml version="1.0" encoding="utf-8"?>
<!-- Generator: Adobe Illustrator 26.1.0, SVG Export Plug-In . SVG Version: 6.00 Build 0)  -->
<svg version="1.1" xmlns="http://www.w3.org/2000/svg" xmlns:xlink="http://www.w3.org/1999/xlink" x="0px" y="0px"
	 viewBox="0 0 24 24" style="enable-background:new 0 0 24 24;" xml:space="preserve">
<style type="text/css">
	.st0{stroke:#000000;stroke-width:0.55;stroke-miterlimit:10;}
	.st1{stroke:#000000;stroke-width:0.7;stroke-miterlimit:10;}
</style>
<g id="soil">
	<g>
		<circle cx="3" cy="17" r="1"/>
		<circle cx="6" cy="20" r="1"/>
		<circle cx="9" cy="23" r="1"/>
		<circle cx="9" cy="17" r="1"/>
		<path d="M3.9,13.3c1.2,0.9,3,0.9,4.3,0c0.5-0.4,1.2-0.4,1.7,0c1.2,0.9,3,0.9,4.3,0c0.4-0.3,0.9-0.3,1.3-0.2c0,0,0,0,0,0
			c0-0.3,0.1-0.7,0.2-1c-0.7-0.2-1.5,0-2,0.4c-0.9,0.7-2.2,0.7-3.1,0c-0.9-0.7-2.1-0.7-2.9,0c-0.9,0.7-2.2,0.7-3.1,0
			c-0.9-0.7-2.1-0.7-2.9,0C1.1,12.8,0.6,13,0,13v1c0.8,0,1.5-0.2,2.1-0.7C2.6,12.9,3.4,12.9,3.9,13.3z"/>
		<circle cx="18" cy="20" r="1"/>
		<circle cx="21" cy="17" r="1"/>
		<circle cx="12" cy="20" r="1"/>
		<path d="M22.5,12.5c-0.2-0.2-0.5-0.3-0.7-0.4c0.1,0.3,0.1,0.6,0.1,0.9c0,0.1,0,0.2,0,0.2c0.6,0.5,1.3,0.7,2.1,0.7v-1
			C23.4,13,22.9,12.8,22.5,12.5z"/>
		<circle cx="15" cy="17" r="1"/>
		<circle cx="15" cy="23" r="1"/>
	</g>
</g>
<g id="leaf">
	<path class="st0" d="M15.1,3.6L15.1,3.6l0-0.3l-0.3,0c-4.3,0.1-5.8,3.2-6.3,5.2c-0.5-2-2-5.2-6.3-5.2L2,3.3l0,0.3
		c-0.1,2.2,0.4,4,1.6,5.1c1.6,1.6,3.8,1.7,4.6,1.7c0,0,0,0,0,0v1.6h0.5v-1.6c0.8,0,3-0.2,4.6-1.7C14.7,7.6,15.2,5.8,15.1,3.6z
		 M4,8.4L4,8.4c-1-1-1.5-2.5-1.5-4.5c4.8,0.2,5.6,4.8,5.7,6C7.5,9.9,5.5,9.8,4,8.4z M13.1,8.4c-1.4,1.4-3.5,1.6-4.2,1.6
		c0.1-1.2,0.9-5.8,5.7-6C14.6,5.8,14.1,7.3,13.1,8.4z"/>
</g>
<g id="droplet">
	<path class="st1" d="M20.2,11.3l-1.5-1.6l-1.5,1.6c-0.4,0.4-0.6,0.9-0.6,1.5c0,0.6,0.2,1.1,0.6,1.5c0.4,0.4,0.9,0.6,1.5,0.6l0,0
		c0.6,0,1.1-0.2,1.5-0.6c0.4-0.4,0.6-0.9,0.6-1.5C20.8,12.2,20.5,11.7,20.2,11.3z M19.9,14.1c-0.7,0.7-1.8,0.7-2.5,0
		c-0.3-0.3-0.5-0.8-0.5-1.2c0-0.5,0.2-0.9,0.5-1.3l1.2-1.4l1.2,1.4c0.3,0.3,0.5,0.8,0.5,1.2C20.4,13.3,20.2,13.7,19.9,14.1z"/>
</g>
<g id="arrow">
</g>
</svg>
