<?xml version="1.0" encoding="utf-8"?>
<!-- Generator: Adobe Illustrator 26.1.0, SVG Export Plug-In . SVG Version: 6.00 Build 0)  -->
<svg version="1.1" xmlns="http://www.w3.org/2000/svg" xmlns:xlink="http://www.w3.org/1999/xlink" x="0px" y="0px"
	 viewBox="0 0 24 24" style="enable-background:new 0 0 24 24;" xml:space="preserve">
<style type="text/css">
	.st0{stroke:#000000;stroke-width:0.4;stroke-miterlimit:10;}
	.st1{display:none;}
	.st2{display:inline;stroke:#000000;stroke-width:0.4;stroke-miterlimit:10;}
</style>
<g id="temp_normal">
	<path class="st0" d="M23.8,0.3v1H15v-1H23.8z M15,5.2h8.8v-1H15V5.2z M15,9.1h8.8v-1H15V9.1z M16.9,13h6.9v-1h-6.9V13z M10.1,17.4
		c0,1.3-1.1,2.4-2.4,2.4s-2.4-1.1-2.4-2.4c0-1.2,0.8-2.2,2-2.4V7.1h1V15C9.2,15.2,10.1,16.2,10.1,17.4z M9.1,17.4
		c0-0.8-0.7-1.5-1.5-1.5s-1.5,0.7-1.5,1.5s0.7,1.5,1.5,1.5S9.1,18.2,9.1,17.4z M12,12.8c1.2,1.2,2,2.9,2,4.6c0,1.9-0.9,3.7-2.3,4.9
		c-1.1,0.9-2.6,1.4-4,1.4c-0.4,0-0.9,0-1.3-0.1c-2.4-0.5-4.4-2.5-4.9-4.9c-0.5-2.2,0.2-4.4,1.8-5.9V4.7c0-2.4,2-4.4,4.4-4.4
		s4.4,2,4.4,4.4V12.8z M11.2,13.4L11,13.2V4.7c0-1.9-1.5-3.4-3.4-3.4S4.2,2.8,4.2,4.7v8.6L4,13.4c-1.4,1.3-2.1,3.2-1.7,5.1
		c0.4,2,2.1,3.7,4.1,4.1c1.6,0.3,3.3-0.1,4.6-1.1c1.3-1,2-2.6,2-4.2C13,15.9,12.4,14.4,11.2,13.4L11.2,13.4z"/>
</g>
<g id="temp_low" class="st1">
	<path class="st2" d="M17.9,15V9.1h-1V15c-1.1,0.2-2,1.2-2,2.4c0,1.3,1.1,2.4,2.4,2.4s2.4-1.1,2.4-2.4C19.8,16.2,19,15.2,17.9,15z
		 M17.4,18.9c-0.8,0-1.5-0.7-1.5-1.5s0.7-1.5,1.5-1.5s1.5,0.7,1.5,1.5S18.2,18.9,17.4,18.9z M21.8,12.8V4.7c0-2.4-2-4.4-4.4-4.4
		S13,2.2,13,4.7v8.1c-1.6,1.5-2.3,3.7-1.8,5.9c0.5,2.4,2.5,4.4,4.9,4.9c0.4,0.1,0.9,0.1,1.3,0.1c1.5,0,2.9-0.5,4-1.4
		c1.5-1.2,2.3-3,2.3-4.9C23.7,15.7,23,14,21.8,12.8L21.8,12.8z M20.8,21.6c-1.3,1-2.9,1.4-4.6,1.1c-2-0.4-3.7-2.1-4.1-4.1
		c-0.4-1.9,0.2-3.8,1.7-5.1l0.2-0.1V4.7c0-1.9,1.5-3.4,3.4-3.4s3.4,1.5,3.4,3.4v8.6l0.2,0.1c1.1,1,1.8,2.5,1.8,4
		C22.8,19,22,20.5,20.8,21.6L20.8,21.6z M8.1,6.8L11,5.1v1.1L8.6,7.6L11,9v1.1L8.1,8.5v3.3l2,2l-0.7,0.7l-1.7-1.7l-1.7,1.7l-0.7-0.7
		l2-2V8.5l-2.9,1.7l-0.7,2.7l-0.9-0.3l0.6-2.4L0.8,9.5L1,8.6l2.7,0.7l2.9-1.7L3.7,5.9L1.1,6.6L0.8,5.7l2.4-0.6L2.5,2.7l0.9-0.3
		l0.7,2.6l2.9,1.7V3.4L5.2,1.5l0.7-0.7l1.7,1.7l1.7-1.7L10,1.5L8.1,3.4V6.8z"/>
</g>
<g id="temp_high" class="st1">
	<path class="st2" d="M11,4.4c0,0.1,0,0.2,0,0.3v0.8c-0.5-0.2-0.9-0.3-1.5-0.3c-2.4,0-4.4,2-4.4,4.4c0,1.6,0.8,3,2.2,3.8l0,0
		C8,13.8,8.8,14,9.6,14c0.1,0,0.2,0,0.3,0c-0.1,0.3-0.3,0.7-0.4,1c-0.8,0-1.5-0.2-2.2-0.5l-2,3.4l-0.8-0.5l2-3.4
		c-0.5-0.4-0.9-0.8-1.3-1.3l-3.4,2l-0.5-0.8l3.4-2c-0.3-0.6-0.4-1.2-0.5-1.8H0.3v-1h3.9c0.1-0.6,0.2-1.2,0.5-1.8l-3.4-2l0.5-0.8
		l3.4,2C5.5,5.9,6,5.5,6.5,5.2l-2-3.4l0.8-0.5l2,3.4c0.5-0.3,1.1-0.4,1.8-0.5V0.3h1v3.9C10.4,4.2,10.7,4.3,11,4.4L11,4.4z
		 M19.8,17.4c0,1.3-1.1,2.4-2.4,2.4s-2.4-1.1-2.4-2.4c0-1.2,0.8-2.2,2-2.4V9.1h1V15C19,15.2,19.8,16.2,19.8,17.4z M18.8,17.4
		c0-0.8-0.7-1.5-1.5-1.5s-1.5,0.7-1.5,1.5s0.7,1.5,1.5,1.5S18.8,18.2,18.8,17.4z M23.7,17.4c0,1.9-0.9,3.7-2.3,4.9
		c-1.1,0.9-2.6,1.4-4,1.4c-0.4,0-0.9,0-1.3-0.1c-2.4-0.5-4.4-2.5-4.9-4.9c-0.5-2.2,0.2-4.4,1.8-5.9V4.7c0-2.4,2-4.4,4.4-4.4
		s4.4,2,4.4,4.4v8.1C23,14,23.7,15.6,23.7,17.4z M22.7,17.4c0-1.5-0.7-3-1.8-4l-0.2-0.1V4.7c0-1.9-1.5-3.4-3.4-3.4S14,2.8,14,4.7
		v8.6l-0.2,0.1c-1.4,1.3-2.1,3.2-1.7,5.1c0.4,2,2.1,3.7,4.1,4.1c1.6,0.3,3.3-0.1,4.5-1.1C22,20.5,22.7,19,22.7,17.4L22.7,17.4z"/>
</g>
</svg>
