<svg width="10" height="8" viewBox="0 0 10 8" fill="none" xmlns="http://www.w3.org/2000/svg">
<path d="M3.75878 0.998506C3.90876 0.619128 4.26792 0.351978 4.68712 0.351978C5.24117 0.351978 5.69031 0.818628 5.69031 1.39427C5.69031 1.96991 5.24117 2.43656 4.68712 2.43656H1M5.84336 7.0015C5.99335 7.38087 6.3525 7.64802 6.77171 7.64802C7.32575 7.64802 7.7749 7.18137 7.7749 6.60573C7.7749 6.03009 7.32575 5.56344 6.77171 5.56344H3.08458M6.99318 2.56194C7.14901 2.18257 7.52216 1.91542 7.95771 1.91542C8.53335 1.91542 9 2.38207 9 2.95771C9 3.53335 8.53335 4 7.95771 4H2.04229" stroke="#94DBFF" stroke-width="0.7" stroke-linecap="round" stroke-linejoin="round"/>
</svg>
